<svg xmlns="http://www.w3.org/2000/svg" viewBox="0 0 640 512" fill="#2e7d32">
  <rect width="640" height="512" rx="40" ry="40" fill="#f4faf6"/>
  <path d="M96 64h448a32 32 0 0 1 32 32v320a32 32 0 0 1-32 32H96a32 32 0 0 1-32-32V96a32 32 0 0 1 32-32zm224 52a28 28 0 1 0 0 56 28 28 0 0 0 0-56zm192 294H128a16 16 0 0 1-16-16v-44a16 16 0 0 1 16-16h384a16 16 0 0 1 16 16v44a16 16 0 0 1-16 16zm16-112H112a16 16 0 0 1-16-16V176a16 16 0 0 1 16-16h416a16 16 0 0 1 16 16v102a16 16 0 0 1-16 16z" fill="#2e7d32" opacity="0.85"/>
  <text x="50%" y="91%" font-family="Montserrat, sans-serif" font-size="38" fill="#145c3a" text-anchor="middle">Image unavailable</text>
</svg>